<svg xmlns="http://www.w3.org/2000/svg" id="구성_요소_201_1" width="757.998" height="230" viewBox="0 0 757.998 230">
    <defs>
        <clipPath id="clip-path">
            <path id="SVGID" d="M145.657 84.255c-8.529-6.088-18.074-11.155-28.826-11.155s-21.319 8.115-21.319 19.473c0 12.586 14.011 18.469 23.753 22.131 16.435 6.296 33.679 12.783 33.679 33.686 0 17.862-15.817 28.416-32.268 28.416-13.383 0-30.631-8.325-40.388-17.256l5.284-7.7c8.727 8.72 22.935 16.825 35.52 16.825 11.972 0 22.321-6.688 22.321-19.676 0-16.042-12.381-20.705-25.164-25.573-14.815-5.686-32.268-12.593-32.268-31.661 0-15.224 15.421-26.787 31.457-26.787 12.374 0 22.526 4.261 32.275 11.365z" class="cls-1" transform="translate(-80.288 -64.982)"/>
        </clipPath>
        <clipPath id="clip-path-2">
            <path id="SVGID-2" d="M160.627 176.806a81.714 81.714 0 0 1-4.064-18.272c-7.506 10.765-15.422 18.272-29.432 18.272-19.676 0-29.834-16.035-29.834-34.1 0-20.5 11.577-38.145 32.275-38.145 8.727 0 18.674 3.443 26.18 7.1.607-27.189-4.261-38.554-21.919-38.554-9.34 0-17.242 3.245-25.771 7.09l-2.236-8.727c9.333-3.647 18.476-6.483 28.621-6.483 19.683 0 31.464 13.792 30.843 37.75l-1.22 43.838c-.2 10.349 2.441 20.085 5.277 29.016zm-5.5-57.644c-6.681-3.443-14.808-6.483-23.323-6.483-17.862 0-24.966 15.012-24.966 30.843 0 11.972 6.688 25.157 20.289 25.157 13.4 0 21.517-10.751 28-21.707z" class="cls-1" transform="translate(-97.297 -64.982)"/>
        </clipPath>
        <clipPath id="clip-path-3">
            <path id="SVGID-3" d="M127.842 188.587a35.289 35.289 0 0 0 26.377 12.169c11.972 0 27.4-8.734 27.4-35.732v-13.171c-7.3 7.7-19.69 13.171-30.243 13.171-25.566 0-37.136-25.559-37.136-47.887 0-24.762 10.145-52.155 39.372-52.155 11.979 0 20.1 5.27 29.22 12.374l2.843-12.374h9.736c-4.854 18.469-4.656 37.75-4.656 56.628v44.642c0 31.654-21.919 42.624-38.363 42.624-11.16 0-23.746-6.5-31.252-14.413zm53.383-99.873C174.918 79.783 164.576 73.1 153.2 73.1c-22.116 0-29.425 23.944-29.425 42.208 0 33.891 19.683 41.609 28.409 41.609 10.963 0 23.351-6.914 29.037-16.444z" class="cls-1" transform="translate(-114.241 -64.982)"/>
        </clipPath>
        <clipPath id="clip-path-4">
            <path id="SVGID-4" d="M212.394 176.806a82.5 82.5 0 0 1-4.063-18.272c-7.506 10.765-15.422 18.272-29.411 18.272-19.7 0-29.841-16.035-29.841-34.1 0-20.5 11.563-38.145 32.268-38.145 8.727 0 18.674 3.443 26.173 7.1.614-27.189-4.261-38.554-21.9-38.554-9.355 0-17.263 3.245-25.792 7.09l-2.229-8.727c9.34-3.647 18.476-6.483 28.621-6.483 19.69 0 31.464 13.792 30.857 37.75l-1.227 43.838c-.2 10.349 2.434 20.085 5.277 29.016zm-5.474-57.644c-6.709-3.443-14.822-6.483-23.344-6.483-17.87 0-24.966 15.012-24.966 30.843 0 11.972 6.695 25.157 20.31 25.157 13.383 0 21.5-10.751 28-21.707z" class="cls-1" transform="translate(-149.078 -64.982)"/>
        </clipPath>
        <clipPath id="clip-path-5">
            <path id="SVGID-5" d="M180.117 174.57h-9.538V100.3l-3.852-34.307h9.129l3.654 30.448c7.1-14.815 18.265-31.457 36.734-31.457 17.855 0 22.526 17.855 22.526 32.466h-9.538c-.212-9.94-.818-24.346-13.792-24.346-10.97 0-35.323 17.044-35.323 57.841z" class="cls-1" transform="translate(-166.727 -64.982)"/>
        </clipPath>
        <clipPath id="clip-path-6">
            <path id="SVGID-6" d="M181.757 120.792c0-41.806 21.517-55.81 41-55.81 17.855 0 41.192 11.972 41.192 55.81 0 43.633-23.132 56.014-41.192 56.014s-41-12.184-41-56.014zm72.67 0c0-20.9-5.291-47.69-31.668-47.69-26.187 0-31.471 26.787-31.471 47.69 0 21.1 5.284 47.887 31.471 47.887 26.377 0 31.668-26.984 31.668-47.887z" class="cls-1" transform="translate(-181.757 -64.982)"/>
        </clipPath>
        <style>
            .cls-1{fill:#fff}.cls-2{fill:#33732d}.cls-4{fill:#32611f}
        </style>
    </defs>
    <g id="그룹_5937" transform="translate(331.07)">
        <g id="그룹_1806" transform="translate(.979 1.009)">
            <path id="패스_7" d="M460.9 312.816c-1.344-27.515.708-55.014-.617-82.528-.418-9.031-7.423-19.2-13.923-19.083-6.481.126-12.469 10.5-12.875 19.083-1.917 39.82 2.992 79.439 1.768 119.134-.388 12.483-1.708 25.751-7.6 36.984-3.74 7.143-13.967 13.1-20.768 6.479-12.529-12.217-8.32-42.908-7.117-58.4 2.833-36.192 4.92-67.545-11.249-101.251-3.74-7.778-15.135-12.7-20.919-9.314s-5.954 15.08-2.24 22.816c16.567 34.536 7.312 69.251 6.731 105.649-.27 17.232 1.186 37.409 10.612 52.065a9.162 9.162 0 0 0 4.112 3.738 6.372 6.372 0 0 0 4.36.835 7.669 7.669 0 0 0 3.458-2c1.458-1.185 2.952-2.415 4.624-2.415 1.541 0 2.98 1.181 4.36 2.311 1.276 1.033 2.582 2.1 3.742 2.1 1.079 0 2.357-1.033 3.6-2.052 1.42-1.162 2.883-2.36 4.485-2.36s3.059 1.192 4.463 2.36c1.245 1.019 2.532 2.052 3.636 2.052 1.133 0 2.427-1.069 3.7-2.089 1.406-1.143 2.847-2.323 4.388-2.323 1.662 0 3.148 1.23 4.607 2.409 1.2.985 2.453 1.962 3.487 2a8.02 8.02 0 0 0 5.866-2.077 20.574 20.574 0 0 0 2.562-2.3c7.67-10.534 10.733-25.057 12.358-37.219 2.453-18.3 1.3-36.259.4-54.612" class="cls-1" transform="translate(-362.855 -211.204)"/>
        </g>
        <g id="그룹_1808">
            <g id="그룹_1807">
                <path id="패스_8" d="M390.311 410.337a7.479 7.479 0 0 1-3.783-1.057c-2.844-1.592-3.564-2.717-4.092-3.54a4.471 4.471 0 0 0-.295-.43c-10.221-15.881-11.08-37.686-10.845-52.727.15-9.285.867-18.558 1.564-27.526 2.077-26.825 4.042-52.161-8.2-77.672-3.914-8.159-3.616-20.472 2.634-24.119a9.763 9.763 0 0 1 4.991-1.223c6.657 0 14.435 4.919 17.347 10.969 16.6 34.6 14.046 67.227 11.344 101.766-.12 1.537-.272 3.22-.429 5.029-1.385 15.673-3.7 41.9 7.242 52.578a8.665 8.665 0 0 0 6.211 2.588c4.764 0 10.334-3.793 12.965-8.814 5.951-11.332 7.127-24.835 7.492-36.551.578-18.744-.23-37.814-1.011-56.258-.869-20.586-1.769-41.872-.758-62.9.423-8.961 6.7-19.9 13.862-20.039 7.608 0 14.527 11.02 14.946 20.042.666 13.749.481 27.709.3 41.212-.172 13.546-.358 27.551.314 41.316l.19 3.764c.875 17.43 1.708 33.9-.592 51.036-1.441 10.756-4.306 26.359-12.543 37.674a16.462 16.462 0 0 1-2.286 2.107l-.443.369a9.02 9.02 0 0 1-6.032 2.325c-.179 0-.357 0-.529-.013-1.318-.056-2.625-1.04-4.078-2.231-1.43-1.157-2.7-2.184-3.968-2.184-1.17 0-2.471 1.057-3.728 2.086-1.5 1.2-2.9 2.329-4.355 2.329-1.491 0-2.971-1.21-4.275-2.28-1.2-1-2.565-2.134-3.824-2.134-1.242 0-2.563 1.083-3.842 2.134-1.3 1.07-2.772 2.28-4.238 2.28-1.5 0-2.941-1.162-4.33-2.287-1.3-1.07-2.591-2.128-3.772-2.128-1.3 0-2.645 1.1-3.945 2.157a8.618 8.618 0 0 1-3.974 2.244 7.255 7.255 0 0 1-1.235.108zM372.287 224.05a7.769 7.769 0 0 0-3.973.949c-5.261 3.073-5.307 14.283-1.833 21.52 12.469 26 10.485 51.592 8.384 78.691-.693 8.937-1.407 18.18-1.555 27.411-.235 14.769.6 36.181 10.451 51.509a5.037 5.037 0 0 1 .374.528c.43.682.973 1.523 3.385 2.877a5.207 5.207 0 0 0 3.7.718 6.992 6.992 0 0 0 2.987-1.781c1.545-1.26 3.247-2.643 5.261-2.643 1.9 0 3.543 1.345 4.995 2.531 1.112.9 2.319 1.882 3.107 1.882.744 0 2.022-1.057 2.954-1.825 1.488-1.216 3.167-2.588 5.126-2.588 1.987 0 3.718 1.438 5.11 2.593.931.762 2.219 1.819 2.99 1.819.745 0 1.916-.947 2.95-1.776 1.663-1.351 3.241-2.636 5.133-2.636 1.983 0 3.592 1.3 5.15 2.558.893.73 2.231 1.823 2.987 1.855l.437.011a7.022 7.022 0 0 0 4.738-1.856l.449-.374a15.031 15.031 0 0 0 2-1.819c7.917-10.871 10.708-26.149 12.118-36.69 2.273-16.951 1.449-33.329.573-50.668l-.185-3.762c-.677-13.826-.492-27.867-.315-41.443.173-13.468.358-27.4-.3-41.088-.4-8.641-7.1-18.13-12.809-18.13-6.037.117-11.6 10.067-11.982 18.128-1 20.935-.1 42.176.764 62.719.777 18.476 1.589 37.584 1 56.4-.37 11.941-1.575 25.728-7.713 37.424-2.574 4.909-8.464 9.883-14.751 9.883a10.749 10.749 0 0 1-7.612-3.153c-11.629-11.341-9.349-37.127-7.843-54.2.157-1.794.309-3.474.425-5.008 2.68-34.26 5.213-66.625-11.153-100.742-2.911-6.067-10.328-9.824-15.524-9.824z" class="cls-2" transform="translate(-362.087 -210.415)"/>
            </g>
        </g>
        <g id="그룹_1809" transform="translate(6.774 12.38)">
            <path id="패스_9" d="M386.566 368a.677.677 0 0 1-.668-.591c-1.38-11.706-.453-30.619.365-47.311.51-10.471 1-20.358.869-27.354-.289-16.159-3.134-28.963-5.641-40.255-.32-1.448-.636-2.871-.943-4.282-4.386-20.136-12.82-26.815-12.907-26.88a.669.669 0 0 1-.212-.782.642.642 0 0 1 .693-.418 24.71 24.71 0 0 1 20 18.626c.629 2.393 1.347 4.849 2.1 7.427 3.278 11.185 7.356 25.1 7.292 46.019-.034 12.731-1.362 28.907-2.428 41.9-.64 7.825-1.194 14.576-1.293 18.539a.67.67 0 0 1-.671.652h-.015a.669.669 0 0 1-.657-.69c.1-4 .653-10.768 1.3-18.612 1.066-12.972 2.39-29.116 2.423-41.8.063-20.719-3.985-34.534-7.238-45.633-.758-2.591-1.481-5.059-2.113-7.464a23.313 23.313 0 0 0-16.622-17.156c2.8 3.069 8.332 10.721 11.655 25.991.3 1.4.622 2.828.944 4.273 2.523 11.357 5.38 24.227 5.671 40.522.129 7.039-.357 16.951-.87 27.444-.816 16.638-1.74 35.489-.369 47.085a.672.672 0 0 1-.589.745.346.346 0 0 1-.076.005z" class="cls-2" transform="translate(-367.379 -220.119)"/>
        </g>
        <g id="그룹_1810" transform="translate(4.204 12.388)">
            <path id="패스_10" d="M375.513 364.278a.675.675 0 0 1-.616-.407c-1.4-3.259-.37-15.747 1.189-34.649.666-8.046 1.417-17.171 2.107-27.114 1.719-24.912-4.724-43.158-8.991-55.229a92.261 92.261 0 0 1-3.112-9.824c-2.386-10.911 1.809-16.442 1.987-16.671a.672.672 0 0 1 1.06.825c-.04.052-3.977 5.311-1.735 15.556a90.719 90.719 0 0 0 3.069 9.667c4.3 12.177 10.8 30.58 9.066 55.768-.694 9.953-1.445 19.08-2.111 27.131-1.488 18.034-2.564 31.058-1.3 34.008a.671.671 0 0 1-.351.883.691.691 0 0 1-.262.056z" class="cls-2" transform="translate(-365.358 -220.126)"/>
        </g>
        <g id="그룹_1811" transform="translate(76.428 .341)">
            <path id="패스_11" d="M432.062 385.232a.628.628 0 0 1-.108-.006.678.678 0 0 1-.556-.772c2.4-14.458 4.676-44.645 1.9-106.338-.061-1.382-.1-2.37-.124-2.9-.061-1.674-.116-5.95-.185-11.364-.189-14.448-.505-38.621-1.319-42.646-.388-1.922-.571-3.108-.714-4.019a19.748 19.748 0 0 0-1.1-4.406c-1.662 2.379-5.6 8.329-6.111 12.182-.677 5.229-.356 44.472.289 55.057l.277 4.329c1.042 15.792 3.482 52.78 1.726 68.314a.669.669 0 0 1-1.33-.146c1.736-15.42-.7-52.324-1.732-68.08l-.283-4.337c-.645-10.619-.967-50.035-.277-55.308.69-5.229 6.846-13.491 7.11-13.84a.652.652 0 0 1 .634-.264.677.677 0 0 1 .537.435 24.334 24.334 0 0 1 1.6 5.858c.135.9.32 2.069.7 3.96.838 4.144 1.14 27.463 1.344 42.891.066 5.408.123 9.678.184 11.333.019.531.063 1.514.124 2.888 2.772 61.817.486 92.095-1.916 106.62a.674.674 0 0 1-.67.559z" class="cls-2" transform="translate(-422.029 -210.681)"/>
        </g>
        <g id="그룹_1812" transform="translate(83.775 .337)">
            <path id="패스_12" d="M437.733 370.6a.8.8 0 0 1-.166-.018.679.679 0 0 1-.489-.82c3.205-12.53 2.176-40.011 1.629-54.776-.082-2.077-.149-3.89-.191-5.361-.55-19.268-1.029-41.487-.888-45.318.246-7.242.383-34.107-1.116-40.757-1.337-5.988-8.39-11.616-8.464-11.672a.673.673 0 1 1 .838-1.054c.3.241 7.5 5.977 8.932 12.433 1.645 7.267 1.344 35.579 1.153 41.1-.142 3.759.351 26.4.888 45.234.042 1.464.11 3.277.19 5.349.555 14.83 1.584 42.437-1.662 55.159a.68.68 0 0 1-.654.501z" class="cls-2" transform="translate(-427.794 -210.678)"/>
        </g>
        <g id="그룹_1813" transform="translate(95.154 21.553)">
            <path id="패스_13" d="M448.789 232.2c-.912 6.037-1.009 12.081-1.43 18.149-.393 5.912.172 11.955-7.349 12.676-5.107.466-3.912 8.358 1.2 7.886 18.464-1.744 13.548-24.794 15.475-37.76.4-2.529-1.231-5.569-3.177-5.821-2.009-.259-4.333 2.316-4.721 4.87" class="cls-1" transform="translate(-436.725 -227.312)"/>
        </g>
        <g id="그룹_1814" transform="translate(94.485 20.883)">
            <path id="패스_14" d="M440.918 271.749a4.789 4.789 0 0 1-4.713-4.739 4.118 4.118 0 0 1 3.888-4.509c6.161-.592 6.37-4.834 6.642-10.2.031-.614.062-1.233.1-1.852.117-1.707.21-3.409.3-5.113.233-4.288.475-8.721 1.134-13.092.418-2.7 2.939-5.741 5.471-5.434a3.84 3.84 0 0 1 2.482 1.635 6.868 6.868 0 0 1 1.278 4.955 85.248 85.248 0 0 0-.6 10.015c-.3 12.613-.64 26.907-15.477 28.31-.172.014-.338.024-.505.024zm12.451-43.623c-1.541 0-3.444 2.181-3.77 4.319-.653 4.3-.888 8.705-1.121 12.963-.092 1.709-.184 3.42-.3 5.133-.043.606-.075 1.219-.106 1.827-.259 5.3-.536 10.769-7.854 11.472a2.773 2.773 0 0 0-2.667 3.111 3.412 3.412 0 0 0 3.744 3.437c13.648-1.288 13.968-14.949 14.257-27a87.373 87.373 0 0 1 .616-10.187 5.527 5.527 0 0 0-1.017-3.95 2.574 2.574 0 0 0-1.583-1.108c-.068-.01-.13-.017-.199-.017z" class="cls-2" transform="translate(-436.2 -226.787)"/>
        </g>
        <g id="그룹_1815" transform="translate(107.9 21.57)">
            <path id="패스_15" d="M450.756 227.326a8.137 8.137 0 0 0-2.921 5.135c-.444 3.357-1.115 16.655-1.115 16.655" class="cls-1" transform="translate(-446.72 -227.326)"/>
        </g>
        <g id="그룹_1816" transform="translate(107.567 21.298)">
            <path id="패스_16" d="M447.123 249.19l-.664-.031c.006-.135.677-13.351 1.115-16.683a8.406 8.406 0 0 1 3.055-5.363l.4.542a7.871 7.871 0 0 0-2.786 4.911c-.443 3.302-1.113 16.492-1.12 16.624z" class="cls-2" transform="translate(-446.459 -227.113)"/>
        </g>
        <g id="그룹_1817" transform="translate(111.934 22.46)">
            <path id="패스_17" d="M449.9 228.023a11.129 11.129 0 0 1 1.133 5.592c-.232 3.126-1.144 6.585-1.133 9.6.024 2.251.9 8.018-.012 12.18" class="cls-1" transform="translate(-449.884 -228.023)"/>
        </g>
        <g id="그룹_1818" transform="translate(111.606 22.301)">
            <path id="패스_18" d="M450.28 255.5l-.653-.143c.665-3.041.37-6.9.149-9.724-.075-.958-.136-1.789-.143-2.381a35.988 35.988 0 0 1 .6-5.573c.214-1.352.436-2.751.534-4.056a10.775 10.775 0 0 0-1.1-5.407l.592-.32a11.4 11.4 0 0 1 1.171 5.775c-.1 1.337-.328 2.747-.543 4.112a34.994 34.994 0 0 0-.591 5.465c.006.566.073 1.385.142 2.332.223 2.867.532 6.786-.158 9.92z" class="cls-2" transform="translate(-449.627 -227.898)"/>
        </g>
    </g>
    <g id="그룹_5912" transform="translate(1.699 84.814)">
        <path id="SVGID-7" d="M145.657 84.255c-8.529-6.088-18.074-11.155-28.826-11.155s-21.319 8.115-21.319 19.473c0 12.586 14.011 18.469 23.753 22.131 16.435 6.296 33.679 12.783 33.679 33.686 0 17.862-15.817 28.416-32.268 28.416-13.383 0-30.631-8.325-40.388-17.256l5.284-7.7c8.727 8.72 22.935 16.825 35.52 16.825 11.972 0 22.321-6.688 22.321-19.676 0-16.042-12.381-20.705-25.164-25.573-14.815-5.686-32.268-12.593-32.268-31.661 0-15.224 15.421-26.787 31.457-26.787 12.374 0 22.526 4.261 32.275 11.365z" class="cls-1" transform="translate(-80.288 -64.982)"/>
        <g id="그룹_5911" clip-path="url(#clip-path)">
            <g id="그룹_5910" transform="translate(-150.456 -105.673)">
                <path id="사각형_7513" d="M0 0H415.95V352.755H0z" class="cls-1"/>
                <path id="사각형_7514" d="M0 0H415.95V352.755H0z" class="cls-1"/>
            </g>
        </g>
    </g>
    <path id="패스_4857" d="M122.135 179.2c-14.321 0-31.944-9.065-41.256-17.594l-.832-.755 6.8-9.912 1.1 1.1c8.2 8.191 22.067 16.452 34.6 16.452 10.476 0 21.037-5.686 21.037-18.385 0-15.1-11.76-19.577-24.212-24.325-14.864-5.7-33.22-12.741-33.22-32.91 0-16.8 16.931-28.078 32.748-28.078 11.668 0 22.166 3.69 33.037 11.612l.889.649-5.242 10.229-1.221-.868c-10.577-7.549-19.24-10.915-28.08-10.915-9.665 0-20.021 7.309-20.021 18.187 0 10.815 11.012 16.437 22.914 20.91 16.339 6.258 34.518 13.228 34.518 34.907 0 19.296-17.294 29.696-33.559 29.696zm-38.681-18.746c9.143 7.972 25.432 16.169 38.681 16.169 15.019 0 30.977-9.51 30.977-27.118 0-19.9-16.55-26.243-32.557-32.381-8.268-3.1-24.875-9.34-24.875-23.436 0-12.43 11.683-20.769 22.6-20.769 11.5 0 21.51 5.778 28.36 10.533l2.871-5.6c-10.085-7.134-19.841-10.471-30.611-10.471-14.568 0-30.166 10.243-30.166 25.5 0 18.392 17.439 25.079 31.443 30.455 12.84 4.889 25.989 9.9 25.989 26.78 0 14.483-11.859 20.967-23.619 20.967-12.705 0-26.631-7.929-35.316-16.127z" class="cls-4" transform="translate(-80.047 18.725)"/>
    <g id="그룹_5916" transform="translate(111.125 84.814)">
        <path id="SVGID-8" d="M160.627 176.806a81.714 81.714 0 0 1-4.064-18.272c-7.506 10.765-15.422 18.272-29.432 18.272-19.676 0-29.834-16.035-29.834-34.1 0-20.5 11.577-38.145 32.275-38.145 8.727 0 18.674 3.443 26.18 7.1.607-27.189-4.261-38.554-21.919-38.554-9.34 0-17.242 3.245-25.771 7.09l-2.236-8.727c9.333-3.647 18.476-6.483 28.621-6.483 19.683 0 31.464 13.792 30.843 37.75l-1.22 43.838c-.2 10.349 2.441 20.085 5.277 29.016zm-5.5-57.644c-6.681-3.443-14.808-6.483-23.323-6.483-17.862 0-24.966 15.012-24.966 30.843 0 11.972 6.688 25.157 20.289 25.157 13.4 0 21.517-10.751 28-21.707z" class="cls-1" transform="translate(-97.297 -64.982)"/>
        <g id="그룹_5915" clip-path="url(#clip-path-2)">
            <g id="그룹_5913" transform="translate(-270.449 -105.673)">
                <path id="사각형_7515" d="M0 0H415.95V352.755H0z" class="cls-1"/>
                <path id="사각형_7516" d="M0 0H415.95V352.755H0z" class="cls-1"/>
            </g>
            <g id="그룹_5914" transform="translate(-270.449 -105.673)">
                <path id="사각형_7517" d="M0 0H415.95V352.755H0z" class="cls-1"/>
                <path id="사각형_7518" d="M0 0H415.95V352.755H0z" class="cls-1"/>
            </g>
        </g>
    </g>
    <path id="패스_4858" d="M160.86 179.339l-.346-1a84.432 84.432 0 0 1-3.725-15.259c-7.323 9.785-15.323 16.127-28.55 16.127-21.5 0-31.125-17.771-31.125-35.393 0-23.224 13.8-39.443 33.566-39.443 9.3 0 19.019 3.668 24.924 6.377.2-16.4-1.82-25.573-6.653-30.519C145.8 77 141.347 75.5 134.941 75.5c-9.03 0-16.776 3.16-25.249 6.977l-1.4.635L105.4 71.79l1.058-.423c8.727-3.407 18.293-6.568 29.093-6.568 9.206 0 16.995 2.991 22.518 8.663 6.631 6.808 9.961 17.319 9.623 30.406l-1.22 43.845c-.2 10.067 2.391 19.69 5.22 28.593l.459 1.46zm-30.18-72.388c-21.291 0-30.984 19.111-30.984 36.861 0 16.332 8.825 32.811 28.543 32.811 13.291 0 20.952-7.083 28.367-17.714l2-2.864.346 3.478a80.607 80.607 0 0 0 3.668 16.959l6.145-.854c-2.709-8.705-5.072-18.081-4.875-27.979l1.21-43.849c.324-12.374-2.751-22.243-8.889-28.536-5.093-5.235-12.049-7.887-20.663-7.887-9.94 0-18.878 2.822-27.083 5.982l1.573 6.123c8.2-3.647 15.873-6.568 24.9-6.568 7.048 0 12.24 1.8 15.866 5.5 5.559 5.686 7.753 15.965 7.344 34.37l-.042 2.018-1.813-.882c-9.112-4.42-18.445-6.969-25.613-6.969zm-2.441 64.127c-14.173 0-21.587-13.305-21.587-26.448 0-15.534 6.9-32.134 26.258-32.134 7.344 0 15.393 2.229 23.922 6.624l.7.36v28.952l-.176.3c-6.542 11.051-15.113 22.346-29.117 22.346zm4.67-56c-17.453 0-23.669 15.266-23.669 29.552 0 11.859 6.526 23.866 19 23.866 12.557 0 20.268-9.947 26.709-20.769V121.06c-7.902-3.972-15.309-5.982-22.039-5.982z" class="cls-4" transform="translate(12.721 18.725)"/>
    <g id="그룹_5922" transform="translate(219.849 84.814)">
        <path id="SVGID-9" d="M127.842 188.587a35.289 35.289 0 0 0 26.377 12.169c11.972 0 27.4-8.734 27.4-35.732v-13.171c-7.3 7.7-19.69 13.171-30.243 13.171-25.566 0-37.136-25.559-37.136-47.887 0-24.762 10.145-52.155 39.372-52.155 11.979 0 20.1 5.27 29.22 12.374l2.843-12.374h9.736c-4.854 18.469-4.656 37.75-4.656 56.628v44.642c0 31.654-21.919 42.624-38.363 42.624-11.16 0-23.746-6.5-31.252-14.413zm53.383-99.873C174.918 79.783 164.576 73.1 153.2 73.1c-22.116 0-29.425 23.944-29.425 42.208 0 33.891 19.683 41.609 28.409 41.609 10.963 0 23.351-6.914 29.037-16.444z" class="cls-1" transform="translate(-114.241 -64.982)"/>
        <g id="그룹_5921" clip-path="url(#clip-path-3)">
            <g id="그룹_5917" transform="translate(25.967 -105.673)">
                <path id="사각형_7519" d="M0 0H415.95V352.755H0z" class="cls-1"/>
                <path id="사각형_7520" d="M0 0H415.95V352.755H0z" class="cls-1"/>
            </g>
            <g id="그룹_5918" transform="translate(-389.983 -105.673)">
                <path id="사각형_7521" d="M0 0H415.95V352.755H0z" class="cls-1"/>
                <path id="사각형_7522" d="M0 0H415.95V352.755H0z" class="cls-1"/>
            </g>
            <g id="그룹_5919" transform="translate(25.967 -105.673)">
                <path id="사각형_7523" d="M0 0H415.95V352.755H0z" class="cls-1"/>
                <path id="사각형_7524" d="M0 0H415.95V352.755H0z" class="cls-1"/>
            </g>
            <g id="그룹_5920" transform="translate(-389.983 -105.673)">
                <path id="사각형_7525" d="M0 0H415.95V352.755H0z" class="cls-1"/>
                <path id="사각형_7526" d="M0 0H415.95V352.755H0z" class="cls-1"/>
            </g>
        </g>
    </g>
    <path id="패스_4859" d="M153.5 211.275c-10.85 0-23.788-5.954-32.191-14.815l-.924-.974 8.7-7.64.854 1.016a33.9 33.9 0 0 0 25.39 11.7c12.042 0 26.1-9.016 26.1-34.427V156c-7.7 6.829-19.16 11.429-28.945 11.429-25.228 0-38.427-24.748-38.427-49.185 0-25.841 10.681-53.446 40.663-53.446 11.965 0 20.1 5.058 28.416 11.407l2.619-11.405H198.2l-.43 1.615c-4.628 17.609-4.621 36.184-4.614 54.145v46.8c-.001 34.667-24.925 43.915-39.656 43.915zm-29.369-15.633c7.852 7.732 19.739 13.051 29.369 13.051 13.771 0 37.072-8.705 37.072-41.333v-46.8c-.014-17.58-.021-35.739 4.282-53.178h-7.041l-3.069 13.347-1.6-1.249c-8.5-6.617-16.515-12.1-28.423-12.1-28.078 0-38.081 26.272-38.081 50.864 0 23.153 12.31 46.6 35.845 46.6 10.123 0 22.173-5.249 29.305-12.776l2.229-2.356v16.43c0 27.323-15.457 37.016-28.691 37.016a36.667 36.667 0 0 1-26.5-11.64zm29.169-36.324c-10.272 0-29.707-8.967-29.707-42.9 0-21.658 9.5-43.5 30.723-43.5 11.055 0 21.926 6.039 29.079 16.155l.233.339v52.522l-.183.3c-5.902 9.902-18.579 17.084-30.145 17.084zm1.012-83.818c-20.769 0-28.141 22.039-28.141 40.917 0 31.887 17.75 40.318 27.125 40.318 10.427 0 22.279-6.653 27.746-15.52V90.231c-6.575-9.093-16.783-14.731-26.73-14.731z" class="cls-4" transform="translate(104.5 18.725)"/>
    <g id="그룹_5926" transform="translate(465.348 84.814)">
        <path id="SVGID-10" d="M212.394 176.806a82.5 82.5 0 0 1-4.063-18.272c-7.506 10.765-15.422 18.272-29.411 18.272-19.7 0-29.841-16.035-29.841-34.1 0-20.5 11.563-38.145 32.268-38.145 8.727 0 18.674 3.443 26.173 7.1.614-27.189-4.261-38.554-21.9-38.554-9.355 0-17.263 3.245-25.792 7.09l-2.229-8.727c9.34-3.647 18.476-6.483 28.621-6.483 19.69 0 31.464 13.792 30.857 37.75l-1.227 43.838c-.2 10.349 2.434 20.085 5.277 29.016zm-5.474-57.644c-6.709-3.443-14.822-6.483-23.344-6.483-17.87 0-24.966 15.012-24.966 30.843 0 11.972 6.695 25.157 20.31 25.157 13.383 0 21.5-10.751 28-21.707z" class="cls-1" transform="translate(-149.078 -64.982)"/>
        <g id="그룹_5925" clip-path="url(#clip-path-4)">
            <g id="그룹_5923" transform="translate(-219.797 -105.673)">
                <path id="사각형_7527" d="M0 0H415.95V352.755H0z" class="cls-1"/>
                <path id="사각형_7528" d="M0 0H415.95V352.755H0z" class="cls-1"/>
            </g>
            <g id="그룹_5924" transform="translate(-219.797 -105.673)">
                <path id="사각형_7529" d="M0 0H415.95V352.755H0z" class="cls-1"/>
                <path id="사각형_7530" d="M0 0H415.95V352.755H0z" class="cls-1"/>
            </g>
        </g>
    </g>
    <path id="패스_4860" d="M212.627 179.339l-.346-1a84.966 84.966 0 0 1-3.718-15.259c-7.33 9.785-15.316 16.127-28.536 16.127-21.51 0-31.132-17.771-31.132-35.393 0-23.224 13.8-39.443 33.559-39.443 9.482 0 19.612 3.958 24.917 6.377.2-16.388-1.8-25.566-6.639-30.511-3.153-3.231-7.6-4.734-14.01-4.734-9.051 0-16.8 3.16-25.263 6.977l-1.4.635-2.9-11.323 1.065-.416c8.727-3.415 18.286-6.575 29.093-6.575 9.206 0 16.988 2.991 22.518 8.663 6.631 6.808 9.961 17.319 9.63 30.406l-1.227 43.845c-.191 10.116 2.4 19.725 5.22 28.593l.466 1.46zm-30.173-72.388c-21.284 0-30.977 19.111-30.977 36.861 0 16.332 8.832 32.811 28.55 32.811 13.27 0 20.931-7.083 28.353-17.714l2-2.871.346 3.485a80.859 80.859 0 0 0 3.654 16.959l6.159-.854c-2.709-8.677-5.072-18.032-4.882-27.979l1.228-43.845c.317-12.374-2.765-22.243-8.9-28.536-5.1-5.235-12.049-7.887-20.663-7.887-9.947 0-18.885 2.822-27.083 5.982l1.566 6.123c8.2-3.647 15.866-6.568 24.917-6.568 7.048 0 12.24 1.8 15.859 5.5 5.559 5.693 7.753 15.972 7.337 34.377l-.042 2.011-1.813-.882c-4.311-2.091-15.422-6.973-25.609-6.973zm-2.427 64.127c-14.187 0-21.6-13.305-21.6-26.448 0-15.534 6.9-32.134 26.257-32.134 7.429 0 15.259 2.166 23.929 6.624l.705.36v28.952l-.176.3c-6.554 11.058-15.132 22.346-29.115 22.346zm4.656-56c-17.453 0-23.675 15.266-23.675 29.552 0 11.859 6.533 23.866 19.019 23.866 12.529 0 20.254-9.947 26.709-20.769V121.06c-8.021-4.021-15.236-5.982-22.053-5.982z" class="cls-4" transform="translate(315.16 18.725)"/>
    <g id="그룹_5930" transform="translate(579.049 85.064)">
        <path id="SVGID-11" d="M180.117 174.57h-9.538V100.3l-3.852-34.307h9.129l3.654 30.448c7.1-14.815 18.265-31.457 36.734-31.457 17.855 0 22.526 17.855 22.526 32.466h-9.538c-.212-9.94-.818-24.346-13.792-24.346-10.97 0-35.323 17.044-35.323 57.841z" class="cls-1" transform="translate(-166.727 -64.982)"/>
        <g id="그룹_5929" clip-path="url(#clip-path-5)">
            <g id="그룹_5927" transform="translate(71.645 -105.673)">
                <path id="사각형_7531" d="M0 0H415.95V352.755H0z" class="cls-1"/>
                <path id="사각형_7532" d="M0 0H415.95V352.755H0z" class="cls-1"/>
            </g>
            <g id="그룹_5928" transform="translate(-344.305 -105.673)">
                <path id="사각형_7533" d="M0 0H415.95V352.755H0z" class="cls-1"/>
                <path id="사각형_7534" d="M0 0H415.95V352.755H0z" class="cls-1"/>
            </g>
        </g>
    </g>
    <path id="패스_4861" d="M182.655 176.969h-12.12V101.4l-4.014-35.591h11.725l3.28 27.309C191.5 74.069 203.3 64.8 217.491 64.8c14.914 0 23.817 12.621 23.817 33.757v1.3h-12.1l-.021-1.27c-.247-11.676-1.411-23.083-12.5-23.083-10.018 0-34.032 16.275-34.032 56.55zm-9.531-2.582h6.949v-42.336c0-42.117 25.834-59.132 36.614-59.132 13.891 0 14.836 15.182 15.055 24.346h6.958c-.2-9.94-2.885-29.884-21.213-29.884-14.025 0-25.658 10.046-35.57 30.723l-1.919 4-4.045-33.714h-6.533l3.7 32.868z" class="cls-4" transform="translate(411.074 18.725)"/>
    <g id="그룹_5934" transform="translate(674.513 84.814)">
        <path id="SVGID-12" d="M181.757 120.792c0-41.806 21.517-55.81 41-55.81 17.855 0 41.192 11.972 41.192 55.81 0 43.633-23.132 56.014-41.192 56.014s-41-12.184-41-56.014zm72.67 0c0-20.9-5.291-47.69-31.668-47.69-26.187 0-31.471 26.787-31.471 47.69 0 21.1 5.284 47.887 31.471 47.887 26.377 0 31.668-26.984 31.668-47.887z" class="cls-1" transform="translate(-181.757 -64.982)"/>
        <g id="그룹_5933" clip-path="url(#clip-path-6)">
            <g id="그룹_5931" transform="translate(-34.387 -105.673)">
                <path id="사각형_7535" d="M0 0H415.95V352.755H0z" class="cls-1"/>
                <path id="사각형_7536" d="M0 0H415.95V352.755H0z" class="cls-1"/>
            </g>
            <g id="그룹_5932" transform="translate(-34.387 -105.673)">
                <path id="사각형_7537" d="M0 0H415.95V352.755H0z" class="cls-1"/>
                <path id="사각형_7538" d="M0 0H415.95V352.755H0z" class="cls-1"/>
            </g>
        </g>
    </g>
    <path id="패스_4862" d="M223.867 179.2c-9.919 0-42.293-4.127-42.293-57.305 0-42.1 21.848-57.1 42.293-57.1 20.536 0 42.483 15 42.483 57.1 0 42.255-21.95 57.305-42.483 57.305zm0-111.824c-19.2 0-39.711 14.321-39.711 54.519 0 50.773 30.4 54.723 39.711 54.723 19.288 0 39.9-14.378 39.9-54.723.001-50.577-30.539-54.514-39.9-54.514zm0 103.7c-21.129 0-32.762-17.46-32.762-49.178 0-31.584 11.633-48.981 32.762-48.981 21.256 0 32.959 17.4 32.959 48.981 0 31.72-11.704 49.18-32.959 49.18zm0-95.577c-24.945 0-30.18 25.235-30.18 46.4 0 21.256 5.235 46.6 30.18 46.6 25.1 0 30.377-25.34 30.377-46.6 0-21.163-5.277-46.399-30.377-46.399z" class="cls-4" transform="translate(491.648 18.725)"/>
</svg>
