<svg xmlns="http://www.w3.org/2000/svg" width="356" height="135" viewBox="0 0 356 135">
    <defs>
        <style>
            .cls-3{fill:#00479c;stroke:#00479c;stroke-width:2px}
        </style>
    </defs>
    <g id="logo" transform="translate(-504 -1245)">
        <path id="사각형_2056" fill="none" d="M0 0H356V135H0z" transform="translate(504 1245)"/>
        <g id="그룹_4083" transform="translate(505.65 1246.887)">
            <g id="logo_user" transform="translate(-1.65)">
                <path id="패스_1910" fill="#00479c" d="M2.584-27.793v5.393c0 5.2 3.511 12.414 14.922 12.414 12.038 0 15.674-7.963 15.674-12.79 0-10.094-5.329-12.54-9.593-16.3-4.7-3.511-9.593-6.959-9.593-9.969 0-2.32 1.5-3.762 3.95-3.762 3.26 0 3.636 3.009 3.636 5.517v2.7h10.785v-4.52c0-7.712-4.389-12.6-14.42-12.6-9.217 0-14.734 4.2-14.734 14.044 0 7.649 4.64 10.408 9.279 14.232 4.577 3.323 9.154 6.27 9.154 10.659a3.687 3.687 0 0 1-4.013 3.887c-3.26 0-3.887-2.508-3.887-5.2v-3.7zm46.287-23.448h7.461V-10.8h11.537v-40.44h7.461v-9.66H48.871zM87.008-10.8h11.536l1.191-8.9h8.088l1.066 8.9h12.1l-9.4-50.1h-15.3zm16.866-42.321H104l2.7 24.515h-5.768zm33 42.321h11.16v-30.974h.125L157.5-10.8h12.54v-50.1h-11.16v29.531h-.125L149.471-60.9h-12.6zm62.709-41.57h1.817c3.072 0 4.828 1.317 4.828 4.263v24.515c0 2.947-1.756 4.263-4.828 4.263h-1.818zM188.047-10.8h17.179c6.082 0 12.54-3.7 12.54-12.853V-47.48c0-7.712-2.7-13.417-12.54-13.417h-17.179zm45.6 0h11.536l1.191-8.9h8.088l1.066 8.9h12.1l-9.4-50.1h-15.3zm16.863-42.322h.125l2.7 24.515h-5.768zm30.4 42.321h11.536v-21.631h2.132c3.26 0 4.389 1.254 4.389 4.138v8.025c0 3.323 0 7.837 1.317 9.467H311.7c-1.317-1.63-1.191-6.144-1.191-9.467v-8.84a7.814 7.814 0 0 0-6.709-7.963v-.128c6.144-1.881 6.959-5.705 6.959-11.6 0-9.028-4.326-12.1-14.609-12.1h-15.238zm11.538-41.569h2.257c4.514 0 4.514 2.006 4.514 5.517 0 3.26 0 5.894-3.95 5.894h-2.821zm45.254 0h1.818c3.072 0 4.828 1.317 4.828 4.263v24.515c0 2.947-1.756 4.263-4.828 4.263h-1.82zM326.167-10.8h17.179c6.082 0 12.54-3.7 12.54-12.853V-47.48c0-7.712-2.7-13.417-12.54-13.417h-17.179z" transform="translate(-2.584 61.712)"/>
            </g>
            <path id="패스_1942" d="M785.258 410.529a12.484 12.484 0 0 0-5.071-2.367 41.71 41.71 0 0 0-8.065-.563h-21.411v3.109h1.366a8.235 8.235 0 0 1 3.016.671 4.306 4.306 0 0 1 1.741 1.574 5.8 5.8 0 0 1 .689 2.094 28.9 28.9 0 0 1 .237 4.262v24.741a24.615 24.615 0 0 1-.341 4.846 4.252 4.252 0 0 1-1.13 2.149l-.015.015a4.5 4.5 0 0 1-1.672 1.112 9.487 9.487 0 0 1-2.784.479l-1.108.057v3.05h23.79v-3.05l-1.108-.057a9.486 9.486 0 0 1-2.784-.479 4.453 4.453 0 0 1-2.8-3.3 23.53 23.53 0 0 1-.356-4.821v-10.885h5.411c2.971 0 4.805-.034 5.6-.105a15.521 15.521 0 0 0 6.606-1.937c3.589-2.118 5.408-5.483 5.408-10a12.7 12.7 0 0 0-5.219-10.595zm-17.808.448h1.65c2.206 0 3.074.034 3.412.062a7.681 7.681 0 0 1 4.244 1.758 8.227 8.227 0 0 1 2.393 3.284 11.925 11.925 0 0 1 .867 4.6 9.037 9.037 0 0 1-2.917 7.1 6.348 6.348 0 0 1-2.716 1.524 19.684 19.684 0 0 1-4.813.446h-2.121z" class="cls-3" transform="translate(-750.861 -327.987)"/>
            <path id="패스_1943" d="M993.24 452.656a17.506 17.506 0 0 1-2.911-.51 4.8 4.8 0 0 1-1.479-.734 7.358 7.358 0 0 1-1.809-2.234 54.923 54.923 0 0 1-2.554-5.576l-14.9-36h-3.495L953.516 440c-1.1 2.849-2 5.009-2.669 6.418a17.938 17.938 0 0 1-1.963 3.322l-.016.021a7.893 7.893 0 0 1-2.264 2.17 5.837 5.837 0 0 1-2.605.719l-1.1.062v3.045h17.376v-3.018l-1.073-.088a5.667 5.667 0 0 1-2.773-.861 3.633 3.633 0 0 1-1.134-1.33 3.793 3.793 0 0 1-.424-1.78 15.682 15.682 0 0 1 1.426-5.37l.839-2.082 1.47-3.9h13.176l2.926 7.192.571 1.41a9.25 9.25 0 0 1 .854 3.254 2.918 2.918 0 0 1-1.535 2.636 8.823 8.823 0 0 1-3.645.833l-1.064.1v3.009h24.392v-2.985zm-33.211-19.041l4.981-13.031 5.283 13.031z" class="cls-3" transform="translate(-843.762 -327.987)"/>
            <path id="패스_1944" d="M1236.707 427.961a22.5 22.5 0 0 0-8.293-6.05l-4.733-2.288c-4.4-2.093-6.54-4.7-6.54-7.984a7 7 0 0 1 .447-2.419 6.709 6.709 0 0 1 1.217-2.1 6.222 6.222 0 0 1 5.042-2.143 7.094 7.094 0 0 1 3.929 1.076 11 11 0 0 1 3.257 3.512 17.225 17.225 0 0 1 1.458 2.938c.422 1.1.935 2.705 1.524 4.783l.241.849h2.845l-.276-15.664h-2.846l-.212.9c-.032.136-.2.811-.44.811a2.609 2.609 0 0 1-.734-.134c-.254-.077-.84-.283-2.173-.816a25.774 25.774 0 0 0-3.773-1.318 13.867 13.867 0 0 0-3.19-.351 13.181 13.181 0 0 0-9.216 3.6 14.153 14.153 0 0 0-3.421 4.826 14.55 14.55 0 0 0-1.221 5.837 12.155 12.155 0 0 0 3.191 8.474 15.4 15.4 0 0 0 2.961 2.44 54.713 54.713 0 0 0 4.993 2.782A50.708 50.708 0 0 1 1226 432.5a10.307 10.307 0 0 1 2.456 2.247 9.142 9.142 0 0 1 1.319 2.709 10.6 10.6 0 0 1 .5 3.144 7.8 7.8 0 0 1-2.187 5.731 7.338 7.338 0 0 1-5.541 2.232c-3.3 0-5.989-1.667-8.213-5.087a29.072 29.072 0 0 1-3.212-8.01l-.221-.829-2.84-.123-.118 16.253h2.759l.284-.758c.266-.71.627-.853 1.121-.853a1.72 1.72 0 0 1 .536.074c.107.036.556.206 2.394 1.007a22.183 22.183 0 0 0 8.786 1.806 16.723 16.723 0 0 0 8.833-2.3 14.353 14.353 0 0 0 5.7-6.571 15.666 15.666 0 0 0 1.341-6.366 13.968 13.968 0 0 0-2.99-8.845z" class="cls-3" transform="translate(-997.117 -321.954)"/>
            <path id="패스_1945" d="M1419.24 427.961a22.5 22.5 0 0 0-8.293-6.05l-4.733-2.288c-4.4-2.093-6.54-4.7-6.54-7.984a7 7 0 0 1 .447-2.419 6.706 6.706 0 0 1 1.217-2.1 6.222 6.222 0 0 1 5.042-2.143 7.094 7.094 0 0 1 3.929 1.076 11 11 0 0 1 3.257 3.512 17.215 17.215 0 0 1 1.458 2.938c.422 1.1.935 2.705 1.525 4.783l.241.849h2.845l-.276-15.664h-2.846l-.212.9c-.032.136-.2.811-.44.811a2.61 2.61 0 0 1-.734-.134c-.254-.077-.84-.283-2.173-.816a25.78 25.78 0 0 0-3.773-1.318 13.866 13.866 0 0 0-3.19-.351 13.18 13.18 0 0 0-9.216 3.6 14.152 14.152 0 0 0-3.421 4.826 14.552 14.552 0 0 0-1.221 5.837 12.155 12.155 0 0 0 3.191 8.474 15.385 15.385 0 0 0 2.961 2.44 54.7 54.7 0 0 0 4.993 2.782 50.712 50.712 0 0 1 5.257 2.977 10.3 10.3 0 0 1 2.456 2.247 9.139 9.139 0 0 1 1.319 2.709 10.6 10.6 0 0 1 .5 3.144 7.805 7.805 0 0 1-2.186 5.731 7.339 7.339 0 0 1-5.541 2.232c-3.3 0-5.989-1.667-8.213-5.087a29.083 29.083 0 0 1-3.212-8.01l-.221-.829-2.84-.123-.118 16.253h2.759l.284-.758c.266-.71.627-.853 1.122-.853a1.719 1.719 0 0 1 .536.074c.108.036.556.206 2.394 1.007a22.183 22.183 0 0 0 8.786 1.806 16.722 16.722 0 0 0 8.832-2.3 14.352 14.352 0 0 0 5.7-6.571 15.665 15.665 0 0 0 1.342-6.366 13.968 13.968 0 0 0-2.994-8.844z" class="cls-3" transform="translate(-1072.048 -321.954)"/>
        </g>
    </g>
</svg>
