<svg xmlns="http://www.w3.org/2000/svg" width="660" height="160" viewBox="0 0 660 160">
    <defs>
        <linearGradient id="linear-gradient" x1=".5" x2=".5" y2="1" gradientUnits="objectBoundingBox">
            <stop offset="0" stop-color="#fd80a8"/>
            <stop offset="1" stop-color="#fdcd40"/>
        </linearGradient>
        <style>
            .cls-2{fill:url(#linear-gradient)}
        </style>
    </defs>
    <g id="그룹_3573" transform="translate(22967 11685)">
        <path id="사각형_1909" fill="none" d="M0 0H660V160H0z" transform="translate(-22967 -11685)"/>
        <g id="그룹_3854" transform="translate(-22990.24 -11721.431)">
            <path id="패스_1030" d="M59.133 145.976q-10.047 0-17.066-4.476a49.644 49.644 0 0 1-12.123-10.818l14.361-8.482a24.652 24.652 0 0 0 6.872 5.243q3.476 1.708 9.648 1.7h25.33V110.3H68.243a11.27 11.27 0 0 1-4.484-.925 13.894 13.894 0 0 1-3.859-2.459 11.488 11.488 0 0 1-2.7-3.7 10.794 10.794 0 0 1-1-4.626V46.982h80.3V110.3h-29.657v18.84h49.418v16.836zm17.6-82.158V89.3a5.208 5.208 0 0 0 .925 3.321c.617.775 1.8 1.155 3.551 1.155h34.282V63.819z" class="cls-2" transform="translate(0 4.048)"/>
            <path id="패스_1031" d="M104.258 124.49h-27.33a33.635 33.635 0 0 1-17.066-4.484 47.474 47.474 0 0 1-13.515-11.585l15.595-7.56a19.775 19.775 0 0 0 7.5 5.4 26.739 26.739 0 0 0 9.181 1.392h94.052v16.837h-46.954v29.031h-21.463zm48.026-77.84v16.836H93.3v15.477a5.15 5.15 0 0 0 .925 3.3c.617.767 1.8 1.147 3.551 1.147h55.745v16.836H84.646a12.133 12.133 0 0 1-8.335-3.337 10.825 10.825 0 0 1-3.711-8.441V46.65z" class="cls-2" transform="translate(113.314 1.755)"/>
            <path id="패스_1032" d="M78.521 110.8a19.774 19.774 0 0 0 7.5 5.4 26.769 26.769 0 0 0 9.181 1.392h55.294v16.829H93.5a33.619 33.619 0 0 1-17.058-4.476 47.806 47.806 0 0 1-13.515-11.577zm32.59-64.4a35.712 35.712 0 0 1 13.048 2.317 28.691 28.691 0 0 1 16.757 16.753 35.743 35.743 0 0 1 2.317 13.048 36.147 36.147 0 0 1-2.317 13.207 28.483 28.483 0 0 1-6.564 10.115 29.708 29.708 0 0 1-10.194 6.485 38.122 38.122 0 0 1-26.176 0 29.821 29.821 0 0 1-10.115-6.485A28.376 28.376 0 0 1 81.3 91.726a36.147 36.147 0 0 1-2.317-13.207A35.743 35.743 0 0 1 81.3 65.47a28.85 28.85 0 0 1 16.683-16.757A35.54 35.54 0 0 1 111.11 46.4zm0 46.025a13.873 13.873 0 0 0 10.035-3.709q3.855-3.7 3.859-10.194a13.812 13.812 0 0 0-3.859-10.194 13.59 13.59 0 0 0-10.035-3.859A13.528 13.528 0 0 0 101 68.325a13.924 13.924 0 0 0-3.788 10.194q0 6.489 3.788 10.194t10.11 3.708zm67.18 38.608v4.864a60.024 60.024 0 0 1-.387 6.485c-.261 2.317-.648 4.682-1.163 7.109a26.941 26.941 0 0 1-2.159 6.406l-17.762-8.652c.206-1.439.467-3.5.767-6.176a78.36 78.36 0 0 0 .467-9.11V47.021h20.236z" class="cls-2" transform="translate(227.845)"/>
            <path id="패스_1033" d="M153.824 115.2a68.893 68.893 0 0 1-22.855-9.577q-10.047-6.631-14.67-15.6a51.016 51.016 0 0 1-14.44 15.373 60.751 60.751 0 0 1-22.159 9.49V96.2a52.563 52.563 0 0 0 13.507-7.339 28.854 28.854 0 0 0 8.035-9.806 40.43 40.43 0 0 0 3.78-13.278 148.516 148.516 0 0 0 .925-17.762h20.387a119.831 119.831 0 0 0 1.155 17.912 41.267 41.267 0 0 0 4.168 13.207A30.093 30.093 0 0 0 140 88.863a54.9 54.9 0 0 0 13.824 7.337zm38.758 45.092a45.092 45.092 0 0 1-6.018 6.1 43.933 43.933 0 0 1-7.418 5.022 42.548 42.548 0 0 1-8.644 3.472 34.866 34.866 0 0 1-9.577 1.313H116.45a12.225 12.225 0 0 1-4.476-.846 12.593 12.593 0 0 1-3.867-2.4 11.519 11.519 0 0 1-2.7-3.7 11.235 11.235 0 0 1-1-4.792v-39.229h20.229v28.414a5.223 5.223 0 0 0 .925 3.321c.617.767 1.8 1.155 3.551 1.155h30.272a22.539 22.539 0 0 0 8.8-1.621 21.661 21.661 0 0 0 6.951-4.713zm-22.7-113.814h20.237v63.85a60.137 60.137 0 0 1-.388 6.493 71.594 71.594 0 0 1-1.155 7.1 26.7 26.7 0 0 1-2.167 6.406l-17.754-8.644c.206-1.439.459-3.5.767-6.176a80.464 80.464 0 0 0 .459-9.11z" class="cls-2" transform="translate(343.729 .546)"/>
            <path id="패스_1034" d="M96.1 96.2a40.365 40.365 0 0 0 13.515-7.189 30.792 30.792 0 0 0 8.027-10.494 44.927 44.927 0 0 0 3.78-13.744 140.016 140.016 0 0 0 .925-16.757h20.233a111.8 111.8 0 0 0 1.162 16.757 46.72 46.72 0 0 0 4.168 13.744 31.789 31.789 0 0 0 8.335 10.494 42.117 42.117 0 0 0 13.832 7.189v19a71.786 71.786 0 0 1-22.839-9.347q-10.012-6.406-14.614-14.282a30.382 30.382 0 0 1-5.52 7.41 49 49 0 0 1-8.3 6.643 67.691 67.691 0 0 1-10.5 5.48 68.537 68.537 0 0 1-12.194 3.78zm30.423 54.661a34.588 34.588 0 0 1 2.618-13.507 31.572 31.572 0 0 1 7.394-10.81 34.59 34.59 0 0 1 11.174-7.1 37.7 37.7 0 0 1 14.1-2.554 36.785 36.785 0 0 1 13.871 2.554 33.153 33.153 0 0 1 10.945 7.1 32.786 32.786 0 0 1 7.236 10.81 34.588 34.588 0 0 1 2.618 13.507 37.562 37.562 0 0 1-2.618 14.211 33.161 33.161 0 0 1-7.236 11.119 32.107 32.107 0 0 1-11.1 7.181 38.779 38.779 0 0 1-14.337 2.546 38.168 38.168 0 0 1-14.251-2.546A31.34 31.34 0 0 1 136 176.193a31.837 31.837 0 0 1-7.015-11.119 39.813 39.813 0 0 1-2.458-14.211zm20.229 1.242q0 6.643 3.859 10.731t10.81 4.1q6.951-.32 10.89-4.326a14.373 14.373 0 0 0 3.938-10.5 15.732 15.732 0 0 0-3.938-10.89q-3.938-4.4-11.048-4.4-6.951 0-10.731 4.175t-3.776 11.107zm31.664-38.149c.2-1.336.459-3.187.767-5.559a63.884 63.884 0 0 0 .467-8.177V46.475h20.229v21.463H219.5v16.836h-19.617v19.067a47.874 47.874 0 0 1-.387 5.868 55.634 55.634 0 0 1-1.163 6.414 21.713 21.713 0 0 1-2.159 5.71z" class="cls-2" transform="translate(457.044 .546)"/>
        </g>
    </g>
</svg>
